<?xml version="1.0" encoding="UTF-8"?>
<!DOCTYPE svg PUBLIC "-//W3C//DTD SVG 1.1//EN" "http://www.w3.org/Graphics/SVG/1.1/DTD/svg11.dtd">
<svg xmlns="http://www.w3.org/2000/svg" version="1.1" width="500px" height="500px" style="shape-rendering:geometricPrecision; text-rendering:geometricPrecision; image-rendering:optimizeQuality; fill-rule:evenodd; clip-rule:evenodd" xmlns:xlink="http://www.w3.org/1999/xlink">
<g><path style="opacity:1" fill="#f4f5fa" d="M -0.5,-0.5 C 166.167,-0.5 332.833,-0.5 499.5,-0.5C 499.5,166.167 499.5,332.833 499.5,499.5C 332.833,499.5 166.167,499.5 -0.5,499.5C -0.5,332.833 -0.5,166.167 -0.5,-0.5 Z"/></g>
<g><path style="opacity:1" fill="#5f5f78" d="M 87.5,169.5 C 93.31,168.51 99.31,168.177 105.5,168.5C 105.843,170.483 105.176,171.817 103.5,172.5C 103.804,171.85 104.137,171.183 104.5,170.5C 98.8722,169.505 93.2055,169.171 87.5,169.5 Z"/></g>
<g><path style="opacity:1" fill="#151930" d="M 394.5,168.5 C 399.844,168.334 405.177,168.501 410.5,169C 419.55,172.247 423.55,178.747 422.5,188.5C 421.528,198.823 421.361,209.156 422,219.5C 424.396,229.901 430.896,235.068 441.5,235C 442.38,236.356 442.714,237.856 442.5,239.5C 432.95,239.196 426.45,243.529 423,252.5C 422,268.167 421,283.833 420,299.5C 418.039,302.135 415.539,303.969 412.5,305C 406.5,305.667 400.5,305.667 394.5,305C 393.663,303.989 393.33,302.822 393.5,301.5C 399.509,301.666 405.509,301.499 411.5,301C 413.081,300.293 414.581,299.46 416,298.5C 417.877,294.702 419.044,290.702 419.5,286.5C 418.423,275.183 418.256,263.85 419,252.5C 420.922,245.472 425.089,240.306 431.5,237C 424.539,232.357 420.372,225.857 419,217.5C 418.816,203.788 418.316,190.122 417.5,176.5C 415.664,175.081 413.664,173.914 411.5,173C 405.843,172.501 400.176,172.334 394.5,172.5C 394.5,171.167 394.5,169.833 394.5,168.5 Z"/></g>
<g><path style="opacity:1" fill="#302e41" d="M 239.5,220.5 C 240.5,220.5 241.5,220.5 242.5,220.5C 242.5,221.5 242.5,222.5 242.5,223.5C 241.5,223.5 240.5,223.5 239.5,223.5C 239.5,222.5 239.5,221.5 239.5,220.5 Z"/></g>
<g><path style="opacity:1" fill="#58586a" d="M 189.5,224.5 C 190.434,225.568 190.768,226.901 190.5,228.5C 192.604,228.201 194.604,228.534 196.5,229.5C 196.376,230.107 196.043,230.44 195.5,230.5C 193.735,229.539 191.735,229.205 189.5,229.5C 189.5,227.833 189.5,226.167 189.5,224.5 Z"/></g>
<g><path style="opacity:1" fill="#222334" d="M 137.5,224.5 C 139.176,225.183 139.843,226.517 139.5,228.5C 147.5,229.167 147.5,229.833 139.5,230.5C 139.334,234.846 139.501,239.179 140,243.5C 149.989,245.39 149.822,246.223 139.5,246C 138.874,245.25 138.374,244.416 138,243.5C 137.501,239.179 137.334,234.846 137.5,230.5C 132.167,229.833 132.167,229.167 137.5,228.5C 137.5,227.167 137.5,225.833 137.5,224.5 Z"/></g>
<g><path style="opacity:1" fill="#565568" d="M 235.5,229.5 C 237.948,228.527 240.615,228.194 243.5,228.5C 243.5,233.833 243.5,239.167 243.5,244.5C 242.513,239.695 242.179,234.695 242.5,229.5C 240.167,229.5 237.833,229.5 235.5,229.5 Z"/></g>
<g><path style="opacity:1" fill="#202337" d="M 257.5,230.5 C 256.676,234.312 256.176,238.312 256,242.5C 255.824,238.312 255.324,234.312 254.5,230.5C 249.167,229.833 249.167,229.167 254.5,228.5C 254.5,227.167 254.5,225.833 254.5,224.5C 255.5,224.5 256.5,224.5 257.5,224.5C 257.5,225.833 257.5,227.167 257.5,228.5C 265.5,229.167 265.5,229.833 257.5,230.5 Z"/></g>
<g><path style="opacity:1" fill="#1c1e2c" d="M 167.5,228.5 C 169.167,228.5 170.833,228.5 172.5,228.5C 172.367,233.272 173.7,233.438 176.5,229C 178.134,228.506 179.801,228.34 181.5,228.5C 181.799,230.604 181.466,232.604 180.5,234.5C 179.571,233.311 179.238,231.978 179.5,230.5C 176.737,230.744 174.571,232.077 173,234.5C 172.502,237.817 172.335,241.15 172.5,244.5C 177.752,245.258 177.585,245.925 172,246.5C 170.5,246.167 169,245.833 167.5,245.5C 168.325,244.614 169.325,244.281 170.5,244.5C 170.5,239.833 170.5,235.167 170.5,230.5C 168.821,230.715 167.821,230.048 167.5,228.5 Z"/></g>
<g><path style="opacity:1" fill="#1e202d" d="M 204.5,228.5 C 207.734,228.205 210.734,228.871 213.5,230.5C 210.667,230.582 207.667,230.748 204.5,231C 203.167,232.333 203.167,233.667 204.5,235C 207.405,236.037 210.239,237.204 213,238.5C 214.212,241.834 213.379,244.334 210.5,246C 206.882,246.966 203.549,246.466 200.5,244.5C 203.919,244.671 207.419,244.337 211,243.5C 211.72,241.888 211.554,240.388 210.5,239C 207.488,238.22 204.655,237.053 202,235.5C 200.916,232.341 201.75,230.008 204.5,228.5 Z"/></g>
<g><path style="opacity:1" fill="#171a34" d="M 87.5,169.5 C 93.2055,169.171 98.8722,169.505 104.5,170.5C 104.137,171.183 103.804,171.85 103.5,172.5C 97.8236,172.334 92.1569,172.501 86.5,173C 84.6951,173.972 83.0284,175.139 81.5,176.5C 80.9312,191.501 80.0979,206.501 79,221.5C 76.7378,227.772 72.9045,232.939 67.5,237C 73.9114,240.306 78.0781,245.472 80,252.5C 80.3333,266.167 80.6667,279.833 81,293.5C 81.427,297.527 83.5936,300.027 87.5,301C 93.5275,301.17 99.5275,301.67 105.5,302.5C 105.023,303.478 104.357,304.311 103.5,305C 96.7658,305.829 90.0992,305.496 83.5,304C 82,302.5 80.5,301 79,299.5C 78,283.833 77,268.167 76,252.5C 72.587,243.543 66.087,239.21 56.5,239.5C 56.2865,237.856 56.6198,236.356 57.5,235C 68.5459,234.959 75.0459,229.459 77,218.5C 77.2891,206.491 77.2891,194.491 77,182.5C 77.7644,175.907 81.2644,171.574 87.5,169.5 Z"/></g>
<g><path style="opacity:1" fill="#242637" d="M 268.5,221.5 C 270.237,224.008 271.07,227.008 271,230.5C 274.696,227.575 278.029,227.908 281,231.5C 280.999,251.5 280.332,251.5 279,231.5C 276.084,229.987 273.418,230.32 271,232.5C 270.828,237.202 270.328,241.868 269.5,246.5C 268.502,238.193 268.169,229.86 268.5,221.5 Z"/></g>
<g><path style="opacity:1" fill="#232536" d="M 331.5,227.5 C 332.043,227.56 332.376,227.893 332.5,228.5C 331.271,229.281 329.938,229.781 328.5,230C 332.313,238.045 329.646,241.545 320.5,240.5C 320.5,241.5 320.5,242.5 320.5,243.5C 324.839,242.846 328.673,243.846 332,246.5C 332.241,251.759 329.574,254.092 324,253.5C 319.521,254.183 317.688,252.516 318.5,248.5C 321.552,251.681 325.219,252.348 329.5,250.5C 330.833,249.167 330.833,247.833 329.5,246.5C 326.557,245.756 323.557,245.256 320.5,245C 318.078,243.112 318.078,241.112 320.5,239C 316.633,235.751 316.633,232.418 320.5,229C 324.356,228.823 328.023,228.323 331.5,227.5 Z"/></g>
<g><path style="opacity:1" fill="#ebedf6" d="M 321.5,230.5 C 328.158,229.344 330.158,231.844 327.5,238C 320.254,239.274 318.254,236.774 321.5,230.5 Z"/></g>
<g><path style="opacity:1" fill="#1f2133" d="M 215.5,228.5 C 216.649,228.791 217.316,229.624 217.5,231C 218.333,235.167 219.167,239.333 220,243.5C 221.154,239.553 221.987,235.553 222.5,231.5C 223.833,231.5 225.167,231.5 226.5,231.5C 227.013,235.553 227.846,239.553 229,243.5C 229.529,238.312 230.696,233.312 232.5,228.5C 232.833,229.333 233.167,230.167 233.5,231C 232.177,236.115 231.177,241.282 230.5,246.5C 229.167,246.5 227.833,246.5 226.5,246.5C 226.254,231.087 224.588,230.754 221.5,245.5C 220.675,246.386 219.675,246.719 218.5,246.5C 217.499,240.497 216.499,234.497 215.5,228.5 Z"/></g>
<g><path style="opacity:1" fill="#1d2030" d="M 338.5,228.5 C 346.114,227.447 349.447,230.781 348.5,238.5C 344.5,238.5 340.5,238.5 336.5,238.5C 336.393,240.903 337.393,242.736 339.5,244C 342.332,244.212 344.998,244.379 347.5,244.5C 343.358,247.407 339.524,247.074 336,243.5C 333.448,237.849 334.282,232.849 338.5,228.5 Z"/></g>
<g><path style="opacity:1" fill="#eaeef9" d="M 339.5,230.5 C 344.339,229.677 346.673,231.677 346.5,236.5C 343.167,236.5 339.833,236.5 336.5,236.5C 336.615,234.053 337.615,232.053 339.5,230.5 Z"/></g>
<g><path style="opacity:1" fill="#35354b" d="M 351.5,228.5 C 352.735,228.721 353.735,229.388 354.5,230.5C 357.703,227.878 360.87,227.878 364,230.5C 364.829,235.864 364.663,241.198 363.5,246.5C 362.671,241.533 362.171,236.533 362,231.5C 359.408,230.018 357.075,230.352 355,232.5C 354.501,237.155 354.334,241.821 354.5,246.5C 353.5,246.5 352.5,246.5 351.5,246.5C 351.5,240.5 351.5,234.5 351.5,228.5 Z"/></g>
<g><path style="opacity:1" fill="#2c2c3e" d="M 152.5,228.5 C 156.516,227.9 160.016,228.9 163,231.5C 163.221,236.22 163.721,240.887 164.5,245.5C 163.132,246.594 161.965,246.26 161,244.5C 157.667,247.167 154.333,247.167 151,244.5C 149.963,237.395 153.13,234.395 160.5,235.5C 160.714,233.856 160.38,232.356 159.5,231C 156.833,230.667 154.167,230.333 151.5,230C 152.056,229.617 152.389,229.117 152.5,228.5 Z"/></g>
<g><path style="opacity:1" fill="#262739" d="M 302.5,228.5 C 305.777,228.216 308.943,228.549 312,229.5C 313.112,234.773 313.945,240.106 314.5,245.5C 310.708,246.49 306.708,246.49 302.5,245.5C 299.378,241.17 300.378,238.003 305.5,236C 307.473,235.505 309.473,235.338 311.5,235.5C 311.714,233.856 311.38,232.356 310.5,231C 307.325,231.053 304.658,230.22 302.5,228.5 Z"/></g>
<g><path style="opacity:1" fill="#eceef7" d="M 304.5,237.5 C 306.833,237.5 309.167,237.5 311.5,237.5C 312.196,243.502 309.529,245.835 303.5,244.5C 303.298,242.05 303.631,239.717 304.5,237.5 Z"/></g>
<g><path style="opacity:1" fill="#f0eff8" d="M 154.5,237.5 C 156.5,237.5 158.5,237.5 160.5,237.5C 161.594,243.905 158.927,246.238 152.5,244.5C 152.185,241.789 152.852,239.456 154.5,237.5 Z"/></g>
<g><path style="opacity:1" fill="#4c4d5d" d="M 254.5,230.5 C 255.324,234.312 255.824,238.312 256,242.5C 256.176,238.312 256.676,234.312 257.5,230.5C 257.5,235.167 257.5,239.833 257.5,244.5C 259.924,244.192 262.257,244.526 264.5,245.5C 261.628,246.783 258.795,246.783 256,245.5C 254.612,240.628 254.112,235.628 254.5,230.5 Z"/></g>
<g><path style="opacity:1" fill="#353549" d="M 189.5,224.5 C 189.5,226.167 189.5,227.833 189.5,229.5C 191.735,229.205 193.735,229.539 195.5,230.5C 193.833,230.5 192.167,230.5 190.5,230.5C 190.5,235.167 190.5,239.833 190.5,244.5C 192.924,244.192 195.257,244.526 197.5,245.5C 193.779,247.186 190.613,246.519 188,243.5C 187.501,239.179 187.334,234.846 187.5,230.5C 182.167,229.833 182.167,229.167 187.5,228.5C 187.157,226.517 187.824,225.183 189.5,224.5 Z"/></g>
<g><path style="opacity:1" fill="#232331" d="M 372.5,228.5 C 375.807,228.063 378.807,228.73 381.5,230.5C 378.998,230.621 376.332,230.788 373.5,231C 369.5,235.333 369.5,239.667 373.5,244C 375.899,244.711 378.232,244.544 380.5,243.5C 381.711,244.274 381.711,245.107 380.5,246C 370.908,247.403 367.075,243.237 369,233.5C 369.997,231.677 371.164,230.01 372.5,228.5 Z"/></g>
<g><path style="opacity:1" fill="#141421" d="M 105.5,241.5 C 108.91,241.384 110.244,243.05 109.5,246.5C 105.065,247.078 103.732,245.411 105.5,241.5 Z"/></g>
<g><path style="opacity:1" fill="#232236" d="M 120.5,228.5 C 123.807,228.063 126.807,228.73 129.5,230.5C 126.667,230.582 123.667,230.748 120.5,231C 119.167,232.333 119.167,233.667 120.5,235C 124.062,235.739 127.228,237.239 130,239.5C 131.042,242.804 129.875,244.971 126.5,246C 123.208,246.936 120.208,246.436 117.5,244.5C 120.333,244.418 123.333,244.252 126.5,244C 127.833,242.333 127.833,240.667 126.5,239C 123.128,238.438 120.295,236.938 118,234.5C 117.333,233.5 117.333,232.5 118,231.5C 119.045,230.627 119.878,229.627 120.5,228.5 Z"/></g>
<g><path style="opacity:1" fill="#1a1a29" d="M 235.5,229.5 C 237.833,229.5 240.167,229.5 242.5,229.5C 242.179,234.695 242.513,239.695 243.5,244.5C 245.288,244.215 246.955,244.548 248.5,245.5C 244.167,246.833 239.833,246.833 235.5,245.5C 237.396,244.534 239.396,244.201 241.5,244.5C 241.5,239.833 241.5,235.167 241.5,230.5C 239.265,230.795 237.265,230.461 235.5,229.5 Z"/></g>
<g><path style="opacity:1" fill="#1e2132" d="M 384.5,228.5 C 385.75,228.577 386.583,229.244 387,230.5C 388.47,235.243 390.136,239.909 392,244.5C 393.869,238.996 396.036,233.662 398.5,228.5C 397.125,235.476 394.958,242.476 392,249.5C 390.611,251.227 388.944,252.561 387,253.5C 386.5,253.167 386,252.833 385.5,252.5C 388.418,251.751 390.085,249.917 390.5,247C 388.398,240.86 386.398,234.693 384.5,228.5 Z"/></g>
</svg>
